<svg width="14" height="14" viewBox="0 0 14 14" fill="none" xmlns="http://www.w3.org/2000/svg">
<g clip-path="url(#clip0_51_809)">
<path fill-rule="evenodd" clip-rule="evenodd" d="M9.80173 0.99585L9.8419 4.52454L6.76415 6.002L6.7262 2.67024L9.80173 0.99585Z" fill="#73CEC0"/>
<path fill-rule="evenodd" clip-rule="evenodd" d="M12.887 6.55628L9.8402 8.29899L6.79163 6.55352L9.83862 4.953L12.887 6.55628Z" fill="#73CEC0"/>
<path fill-rule="evenodd" clip-rule="evenodd" d="M6.24988 6.55628L3.20312 8.29899L0.154541 6.55352L3.20154 4.953L6.24988 6.55628Z" fill="#73CEC0"/>
<path fill-rule="evenodd" clip-rule="evenodd" d="M3.16882 0.981567L6.33115 2.54775L6.2503 5.9608L3.26447 4.48204L3.16882 0.981567Z" fill="#73CEC0"/>
<path fill-rule="evenodd" clip-rule="evenodd" d="M9.88816 12.0775L6.72583 10.5113L6.80668 7.09827L9.79251 8.57705L9.88816 12.0775Z" fill="#73CEC0"/>
<path fill-rule="evenodd" clip-rule="evenodd" d="M3.27811 12.1094L3.23792 8.58073L6.31569 7.10327L6.35364 10.435L3.27811 12.1094Z" fill="#73CEC0"/>
</g>
<defs>
<clipPath id="clip0_51_809">
<rect width="13.0588" height="13.0588" fill="white"/>
</clipPath>
</defs>
</svg>
