<svg width="14" height="14" viewBox="0 0 14 14" fill="none" xmlns="http://www.w3.org/2000/svg">
<g clip-path="url(#clip0_51_746)">
<path fill-rule="evenodd" clip-rule="evenodd" d="M5.85077 11.5503C6.09887 11.5883 6.35295 11.608 6.61168 11.608C9.36633 11.608 11.5994 9.37488 11.5994 6.62023C11.5994 3.86556 9.36633 1.63247 6.61168 1.63247C6.42687 1.63247 6.24437 1.64253 6.06479 1.66211C7.43125 2.69736 8.3347 4.49067 8.3347 6.52953C8.3347 8.67302 7.33614 10.5451 5.85077 11.5503ZM6.52098 13.0589C10.1271 13.0589 13.0504 10.1356 13.0504 6.52953C13.0504 2.92344 10.1271 0.00012207 6.52098 0.00012207C2.91489 0.00012207 -0.00842285 2.92344 -0.00842285 6.52953C-0.00842285 10.1356 2.91489 13.0589 6.52098 13.0589Z" fill="#5A5465"/>
</g>
<defs>
<clipPath id="clip0_51_746">
<rect width="13.0588" height="13.0588" fill="white"/>
</clipPath>
</defs>
</svg>
