<svg width="14" height="14" viewBox="0 0 14 14" fill="none" xmlns="http://www.w3.org/2000/svg">
<g clip-path="url(#clip0_51_1163)">
<path fill-rule="evenodd" clip-rule="evenodd" d="M2.4845 11.2389C2.43968 11.1968 2.39535 11.1538 2.35154 11.11C0.0385823 8.79705 0.0385826 5.047 2.35154 2.73406C4.66448 0.421092 12.0345 0.266357 12.0345 0.266357C12.0345 0.266357 13.0404 8.79705 10.7275 11.11C8.67328 13.1642 5.48556 13.394 3.17774 11.7994L5.0373 9.51743L8.00996 8.87563L5.58339 8.63305L7.12551 7.06288L8.8809 6.67833L7.49284 6.26726L8.8809 3.76323L6.90652 5.97782L6.14408 4.90192L6.41248 6.67833L5.0373 8.22861L4.39984 6.26723V8.87563L2.4845 11.2389Z" fill="#63BC5A"/>
</g>
<defs>
<clipPath id="clip0_51_1163">
<rect width="13.0588" height="13.0588" fill="white"/>
</clipPath>
</defs>
</svg>
