<svg width="94" height="94" viewBox="0 0 94 94" fill="none" xmlns="http://www.w3.org/2000/svg">
<path fill-rule="evenodd" clip-rule="evenodd" d="M17.8851 80.9015C17.5625 80.598 17.2434 80.2886 16.928 79.9732C0.278882 63.3242 0.278884 36.3306 16.928 19.6816C33.577 3.03239 86.6276 1.91858 86.6276 1.91858C86.6276 1.91858 93.8689 63.3242 77.2198 79.9732C62.4332 94.7598 39.4873 96.414 22.8752 84.9359L36.2606 68.5096L57.6585 63.8898L40.1916 62.1437L51.292 50.8413L63.9277 48.0732L53.9361 45.1143L63.9277 27.0898L49.7157 43.0308L44.2275 35.2863L46.1595 48.0732L36.2606 59.2324L31.6721 45.1141V63.8898L17.8851 80.9015Z" fill="url(#paint0_linear_51_1151)"/>
<defs>
<linearGradient id="paint0_linear_51_1151" x1="-3.94165" y1="8.70809" x2="66.0844" y2="110.149" gradientUnits="userSpaceOnUse">
<stop stop-color="white"/>
<stop offset="1" stop-color="white" stop-opacity="0"/>
</linearGradient>
</defs>
</svg>
