<svg width="14" height="14" viewBox="0 0 14 14" fill="none" xmlns="http://www.w3.org/2000/svg">
<g clip-path="url(#clip0_51_1194)">
<path fill-rule="evenodd" clip-rule="evenodd" d="M10.7678 8.8381C10.7678 11.1688 8.87128 13.0583 6.53173 13.0583C4.19219 13.0583 2.29562 11.1688 2.29562 8.8381C2.29562 6.57128 6.30259 0.345607 6.52235 0.00587146C6.52737 -0.0018758 6.53612 -0.00187573 6.54112 0.00587154C6.76087 0.345607 10.7678 6.57128 10.7678 8.8381ZM5.82559 11.7053C3.67598 11.235 4.04382 8.85379 4.04382 8.85379C4.04382 8.85379 4.63081 10.2912 6.05526 10.7569C7.4797 11.2225 9.20111 10.5396 9.20111 10.5396C9.20111 10.5396 7.97519 12.1757 5.82559 11.7053Z" fill="#5090D6"/>
</g>
<defs>
<clipPath id="clip0_51_1194">
<rect width="13.0588" height="13.0588" fill="white"/>
</clipPath>
</defs>
</svg>
