<svg width="94" height="94" viewBox="0 0 94 94" fill="none" xmlns="http://www.w3.org/2000/svg">
<g clip-path="url(#clip0_51_530)">
<path fill-rule="evenodd" clip-rule="evenodd" d="M83.7055 78.0599C83.7055 78.0599 71.8527 87.5662 48.266 83.6324C30.3711 80.6477 20.8268 60.9213 20.8268 50.318C20.8268 25.1785 39.4333 19.4575 52.0126 19.4575C64.5917 19.4575 72.7978 31.7216 72.7978 41.2171C72.7978 50.7125 66.0819 59.0179 55.6305 59.0179C45.1792 59.0179 42.0838 51.6806 42.0838 44.9348C42.0838 38.1892 47.5415 35.8126 52.519 35.8126C57.4964 35.8126 59.2007 40.0621 59.2007 43.7143C59.2007 47.3667 56.3669 48.6746 54.0033 48.6746C51.6397 48.6746 51.406 47.4822 50.5014 46.229C49.5967 44.976 51.6551 40.2326 48.266 40.2326C44.8769 40.2326 44.2451 45.6855 44.2451 45.6855C44.2451 45.6855 45.4807 56.2115 55.6305 56.03C65.7805 55.8482 70.5956 48.0014 69.1962 40.2326C67.7969 32.4637 60.2572 24.2084 47.0249 25.8765C33.7926 27.5446 28.39 40.9147 30.7714 55.2027C33.1527 69.4909 50.2697 77.7695 63.7281 74.791C77.1866 71.8126 90.591 62.0693 90.591 37.3662C90.591 12.6629 69.1962 -2.18602 43.685 0.261161C18.1737 2.70833 2.33745 25.012 3.35111 51.8102C4.36477 78.6085 29.7932 93.2036 51.2955 93.9558C72.7978 94.7082 85.9796 82.2611 85.9796 82.2611C85.9796 82.2611 88.9441 79.6175 87.7818 77.5532C86.6197 75.4889 83.7055 78.0599 83.7055 78.0599Z" fill="url(#paint0_linear_51_530)"/>
</g>
<defs>
<linearGradient id="paint0_linear_51_530" x1="-5.43118" y1="7.04687" x2="67.1601" y2="112.618" gradientUnits="userSpaceOnUse">
<stop stop-color="white"/>
<stop offset="1" stop-color="white" stop-opacity="0"/>
</linearGradient>
<clipPath id="clip0_51_530">
<rect width="94" height="94" fill="white"/>
</clipPath>
</defs>
</svg>
