<svg width="14" height="14" viewBox="0 0 14 14" fill="none" xmlns="http://www.w3.org/2000/svg">
<g clip-path="url(#clip0_51_542)">
<path fill-rule="evenodd" clip-rule="evenodd" d="M11.6287 10.8447C11.6287 10.8447 9.98209 12.1653 6.70535 11.6188C4.21933 11.2042 2.8934 8.46369 2.8934 6.99065C2.8934 3.49818 5.47828 2.7034 7.22584 2.7034C8.97337 2.7034 10.1134 4.40717 10.1134 5.72631C10.1134 7.04546 9.1804 8.19928 7.72845 8.19928C6.27652 8.19928 5.8465 7.17995 5.8465 6.2428C5.8465 5.30568 6.6047 4.97551 7.29618 4.97551C7.98766 4.97551 8.22443 5.56586 8.22443 6.07324C8.22443 6.58065 7.83075 6.76235 7.5024 6.76235C7.17404 6.76235 7.14157 6.59669 7.0159 6.42259C6.89021 6.24851 7.17618 5.58955 6.70535 5.58955C6.23452 5.58955 6.14675 6.34709 6.14675 6.34709C6.14675 6.34709 6.3184 7.8094 7.72845 7.78417C9.13852 7.75892 9.80746 6.66882 9.61305 5.58955C9.41865 4.51026 8.37122 3.36341 6.53293 3.59515C4.69465 3.82689 3.9441 5.68431 4.27493 7.66925C4.60576 9.65421 6.98372 10.8043 8.8534 10.3905C10.7231 9.97676 12.5853 8.62318 12.5853 5.19134C12.5853 1.75946 9.61305 -0.303398 6.06894 0.036573C2.52481 0.376543 0.324789 3.47504 0.46561 7.19796C0.606431 10.9209 4.13904 12.9485 7.12621 13.053C10.1134 13.1575 11.9447 11.4283 11.9447 11.4283C11.9447 11.4283 12.3565 11.061 12.195 10.7743C12.0336 10.4875 11.6287 10.8447 11.6287 10.8447Z" fill="#FA7179"/>
</g>
<defs>
<clipPath id="clip0_51_542">
<rect width="13.0588" height="13.0588" fill="white"/>
</clipPath>
</defs>
</svg>
