<svg width="14" height="14" viewBox="0 0 14 14" fill="none" xmlns="http://www.w3.org/2000/svg">
<g clip-path="url(#clip0_51_519)">
<path fill-rule="evenodd" clip-rule="evenodd" d="M2.62008 10.3547L4.71464 9.74734L6.52375 13.0552C6.52612 13.0595 6.53227 13.0595 6.53461 13.0552L8.34372 9.74734L10.4383 10.3547C10.443 10.356 10.4474 10.3517 10.446 10.347L9.83852 8.29386L13.0551 6.53461C13.0595 6.53227 13.0595 6.52612 13.0552 6.52377L9.81202 4.75002L10.446 2.6073C10.4474 2.60261 10.443 2.59825 10.4383 2.5996L8.2946 3.22119L6.53461 0.00321851C6.53227 -0.00107273 6.52612 -0.00107285 6.52377 0.00321841L4.76379 3.22119L2.62008 2.5996C2.61539 2.59825 2.61102 2.60261 2.61243 2.6073L3.24637 4.75002L0.00321851 6.52377C-0.00107273 6.52612 -0.00107285 6.53227 0.00321841 6.53461L3.21984 8.29386L2.61243 10.347C2.61102 10.3517 2.61539 10.356 2.62008 10.3547ZM4.24544 6.55175L5.72933 7.36331L6.54089 8.84717C6.54324 8.85148 6.54941 8.85148 6.55175 8.84717L7.36331 7.36331L8.84717 6.55175C8.85146 6.54941 8.85146 6.54324 8.84717 6.54089L7.36331 5.72933L6.55175 4.24547C6.54941 4.24116 6.54324 4.24116 6.54089 4.24547L5.72933 5.72933L4.24544 6.54089C4.24116 6.54324 4.24116 6.54941 4.24544 6.55175Z" fill="#EC8FE6"/>
</g>
<defs>
<clipPath id="clip0_51_519">
<rect width="13.0588" height="13.0588" fill="white"/>
</clipPath>
</defs>
</svg>
